<?xml version="1.0" encoding="UTF-8" standalone="no"?>
<!-- Creator: CorelDRAW -->

<?xml-stylesheet href="Logo Arsy White.css" type="text/css"?><svg
   xml:space="preserve"
   width="2.11666cm"
   height="2.11666cm"
   version="1.1"
   style="shape-rendering:geometricPrecision; text-rendering:geometricPrecision; image-rendering:optimizeQuality; fill-rule:evenodd; clip-rule:evenodd"
   viewBox="0 0 2.11666 2.11666"
   id="svg3"
   sodipodi:docname="Logo Arsy Bulat.svg"
   inkscape:version="1.4.3 (0d15f75042, 2025-12-25)"
   xmlns:inkscape="http://www.inkscape.org/namespaces/inkscape"
   xmlns:sodipodi="http://sodipodi.sourceforge.net/DTD/sodipodi-0.dtd"
   xmlns="http://www.w3.org/2000/svg"
   xmlns:svg="http://www.w3.org/2000/svg"><defs
   id="defs3" /><sodipodi:namedview
   id="namedview3"
   pagecolor="#ffffff"
   bordercolor="#000000"
   borderopacity="0.25"
   inkscape:showpageshadow="2"
   inkscape:pageopacity="0.0"
   inkscape:pagecheckerboard="0"
   inkscape:deskcolor="#d1d1d1"
   inkscape:document-units="cm"
   inkscape:zoom="2.3688151"
   inkscape:cx="-17.097156"
   inkscape:cy="72.399067"
   inkscape:window-width="1889"
   inkscape:window-height="1014"
   inkscape:window-x="0"
   inkscape:window-y="0"
   inkscape:window-maximized="0"
   inkscape:current-layer="g1" />
 <g
   id="Layer_x0020_1"
   inkscape:label="Layer 1">
  <metadata
   id="CorelCorpID_0Corel-Layer" />
  
  
  <g
   id="g1"
   transform="matrix(0.81879934,0,0,0.84890575,0.19679125,0.15470238)"><circle
     style="shape-rendering:geometricPrecision;text-rendering:geometricPrecision;image-rendering:optimizeQuality;fill-rule:evenodd;clip-rule:evenodd;fill:#f9f9f9;stroke:none;stroke-width:0.0264999"
     id="path4"
     cx="1.0583301"
     cy="1.0583301"
     r="1.042534"
     transform="matrix(1.2213005,0,0,1.1779871,-0.24034124,-0.1822374)" /><g
     id="g4"
     transform="translate(-0.00482291,-0.02325931)"><path
       class="fil0"
       d="M 1.80549,0.62185 C 1.9383,0.75565 1.93897,0.98553 1.90542,1.19157 1.84006,1.59292 1.51714,1.88365 1.14911,1.90032 1.0801,1.90345 1.0988,1.89133 1.12248,1.87322 1.29678,1.73993 1.42728,1.49873 1.45638,1.20575 1.49514,0.81534 1.34092,0.45872 1.1,0.30211 1.04452,0.26604 1.07696,0.21847 1.12998,0.22982 1.37918,0.28317 1.62922,0.44428 1.80549,0.62185 Z"
       id="path1"
       style="fill:#1b1b95;fill-opacity:1" /><path
       class="fil0"
       d="M 0.72915,0.4167 C 1.04613,0.42811 1.29384,0.69433 1.28243,1.01131 1.2809,1.05378 1.27394,1.12757 1.24145,1.03296 1.1885,0.87871 1.0449,0.7654 0.87218,0.75918 0.79064,0.75624 0.71386,0.77759 0.64879,0.81672 0.58586,0.85457 0.59404,0.85675 0.53845,0.84918 L 0.21959,0.80652 C 0.20256,0.80435 0.15985,0.8049 0.1923,0.73854 0.28891,0.541 0.4952,0.40827 0.72915,0.4167 Z"
       id="path2"
       style="fill:#aa0000" /><path
       class="fil0"
       d="m 0.77029,0.91057 c 0.2159,0 0.39886,0.14253 0.45859,0.33885 C 1.23162,1.25841 1.23035,1.26496 1.22676,1.26687 1.22126,1.2698 1.21228,1.25959 1.20425,1.24857 1.18304,1.2195 1.17014,1.20302 1.13892,1.18145 1.09279,1.14957 1.03648,1.13115 0.97618,1.13115 c -0.15776,0 -0.28566,0.12789 -0.28566,0.28566 0,0.15776 0.1279,0.28565 0.28566,0.28565 0.05668,0 0.10949,-0.01651 0.1539,-0.04497 C 1.13734,1.65284 1.16675,1.63021 1.17344,1.63862 1.17864,1.64516 1.16804,1.65827 1.16431,1.66364 1.07777,1.78826 0.93352,1.86976 0.77029,1.86976 c -0.26487,0 -0.47959,-0.21473 -0.47959,-0.4796 0,-0.26487 0.21472,-0.47959 0.47959,-0.47959 z"
       id="path3"
       style="fill:#aa0000" /></g></g>
 </g>
</svg>
