<?xml version="1.0" encoding="UTF-8" standalone="no"?>
<!-- Logo Arsy Stiker — dipakai favicon & UI -->
<svg
   xml:space="preserve"
   width="2.11666cm"
   height="2.11666cm"
   version="1.1"
   style="shape-rendering:geometricPrecision; text-rendering:geometricPrecision; image-rendering:optimizeQuality; fill-rule:evenodd; clip-rule:evenodd"
   viewBox="0 0 2.11666 2.11666"
   id="svg3"
   sodipodi:docname="Logo Arsy Bulat.svg"
   inkscape:version="1.4.3 (0d15f75042, 2025-12-25)"
   xmlns:inkscape="http://www.inkscape.org/namespaces/inkscape"
   xmlns:sodipodi="http://sodipodi.sourceforge.net/DTD/sodipodi-0.dtd"
   xmlns="http://www.w3.org/2000/svg"
   xmlns:svg="http://www.w3.org/2000/svg"><defs
   id="defs3" /><sodipodi:namedview
   id="namedview3"
   pagecolor="#ffffff"
   bordercolor="#000000"
   borderopacity="0.25"
   inkscape:showpageshadow="2"
   inkscape:pageopacity="0.0"
   inkscape:pagecheckerboard="0"
   inkscape:deskcolor="#d1d1d1"
   inkscape:document-units="cm"
   inkscape:zoom="4.7376302"
   inkscape:cx="12.66456"
   inkscape:cy="45.381339"
   inkscape:window-width="1895"
   inkscape:window-height="1019"
   inkscape:window-x="0"
   inkscape:window-y="0"
   inkscape:window-maximized="0"
   inkscape:current-layer="g1" />
 <g
   id="Layer_x0020_1"
   inkscape:label="Layer 1">
  <metadata
   id="CorelCorpID_0Corel-Layer" />
  
  
  <g
   id="g1"
   transform="matrix(0.81879934,0,0,0.84890575,0.19679125,0.15470238)"><circle
     style="shape-rendering:geometricPrecision;text-rendering:geometricPrecision;image-rendering:optimizeQuality;fill-rule:evenodd;clip-rule:evenodd;fill:#f9f9f9;stroke:none;stroke-width:0.0264999"
     id="path4"
     cx="1.0583301"
     cy="1.0583301"
     r="1.042534"
     transform="matrix(1.2213005,0,0,1.1779871,-0.24034124,-0.1822374)" /><path
     style="fill:#aa0000;fill-opacity:1;stroke-width:0.0717167"
     d="m 0.22485739,1.1780906 c 0,0 0.54326601,-0.19486468 1.12622021,-1.06701043 0.3308702,0.11874844 0.4847635,0.57147586 0.4847635,0.57147586 0,0 -0.2394399,0.36055257 -0.7625157,0.48474547 -0.52307608,0.1241931 -0.84846801,0.010785 -0.84846801,0.010785 z"
     id="path5"
     sodipodi:nodetypes="ccczc" /><path
     style="fill:#1b1b95;fill-opacity:1;stroke-width:0.0717167"
     d="m 0.13289885,1.3475488 c 0.517061,0.036069 1.03742565,0.077592 1.24325545,-0.1863044 0.1055113,0.030108 0.2397968,0.084253 0.386307,0.068223 0,0 0.033129,0.341472 -0.1251429,0.4880622 C 1.4790462,1.864119 1.31993,1.8812736 1.0605785,1.8408589 0.80122664,1.8004443 0.1328979,1.3475495 0.13289885,1.3475488 Z"
     id="path6"
     sodipodi:nodetypes="ccczzc" /></g>
 </g>
</svg>
